<?xml version="1.0" standalone="no"?><!DOCTYPE svg PUBLIC "-//W3C//DTD SVG 1.1//EN" "http://www.w3.org/Graphics/SVG/1.1/DTD/svg11.dtd">
<svg x="0.0000mm" y="0.0000mm" width="59.7960mm" height="26.4580mm" viewBox="0.0000 0.0000 59.7960 26.4580" version="1.1" xmlns="http://www.w3.org/2000/svg">
<title>TBarCode - 11.6.0.15437</title>
<desc>BarCode licensed to MEM:TEC-IT Datenverarbeitung GmbH Internal License</desc>
<g fill="rgb(0%,0%,0%)">
</g>
<g fill="rgb(100%,100%,100%)">
<rect x="0.0000" y="0.0000" width="59.7960" height="26.4580" />
</g>
<g fill="rgb(0%,0%,0%)">
</g>
<g fill="rgb(0%,0%,0%)">
<rect x="5.8208" y="0.0000" width="0.5292" height="23.0371" />
<rect x="6.8792" y="0.0000" width="0.5292" height="23.0371" />
<rect x="8.9959" y="0.0000" width="1.0583" height="20.1864" />
<rect x="10.5834" y="0.0000" width="0.5292" height="20.1864" />
<rect x="11.6010" y="0.0000" width="1.0990" height="20.1864" />
<rect x="13.7177" y="0.0000" width="1.0990" height="20.1864" />
<rect x="16.4449" y="0.0000" width="0.4885" height="20.1864" />
<rect x="18.0324" y="0.0000" width="0.4885" height="20.1864" />
<rect x="19.0501" y="0.0000" width="2.1167" height="20.1864" />
<rect x="21.6959" y="0.0000" width="0.5292" height="20.1864" />
<rect x="22.7135" y="0.0000" width="1.6282" height="20.1864" />
<rect x="24.8302" y="0.0000" width="1.0990" height="20.1864" />
<rect x="26.9876" y="0.0000" width="1.5875" height="20.1864" />
<rect x="29.1042" y="0.0000" width="0.5292" height="20.1864" />
<rect x="30.1626" y="0.0000" width="0.5292" height="23.0371" />
<rect x="31.2209" y="0.0000" width="0.5292" height="23.0371" />
<rect x="32.2793" y="0.0000" width="1.0990" height="20.1864" />
<rect x="33.8668" y="0.0000" width="1.0990" height="20.1864" />
<rect x="35.9834" y="0.0000" width="1.5875" height="20.1864" />
<rect x="38.1001" y="0.0000" width="0.5292" height="20.1864" />
<rect x="39.6876" y="0.0000" width="0.5292" height="20.1864" />
<rect x="40.7459" y="0.0000" width="1.5875" height="20.1864" />
<rect x="43.3918" y="0.0000" width="0.5292" height="20.1864" />
<rect x="44.4501" y="0.0000" width="1.5875" height="20.1864" />
<rect x="47.0960" y="0.0000" width="1.5875" height="20.1864" />
<rect x="49.7418" y="0.0000" width="0.5292" height="20.1864" />
<rect x="50.8001" y="0.0000" width="1.0990" height="20.1864" />
<rect x="52.9168" y="0.0000" width="1.0990" height="20.1864" />
<rect x="54.5043" y="0.0000" width="0.5292" height="23.0371" />
<rect x="55.5627" y="0.0000" width="0.5292" height="23.0371" />
</g>
<g fill="rgb(0%,0%,0%)">
<text x="2.9104" y="25.2821" transform="rotate(360 2.9104,25.2821)" text-anchor="middle" font-family="Arial" font-size="5.6444" >5</text>
<text x="18.7855" y="25.2821" transform="rotate(360 18.7855,25.2821)" text-anchor="middle" font-family="Arial" font-size="5.6444" >018374</text>
<text x="43.1272" y="25.2821" transform="rotate(360 43.1272,25.2821)" text-anchor="middle" font-family="Arial" font-size="5.6444" >294401</text>
</g>
</svg>
