<?xml version="1.0" standalone="no"?><!DOCTYPE svg PUBLIC "-//W3C//DTD SVG 1.1//EN" "http://www.w3.org/Graphics/SVG/1.1/DTD/svg11.dtd">
<!--<svg x="0.0000mm" y="0.0000mm" width="42.8620mm" height="26.4580mm" viewBox="0.0000 0.0000 42.8620 26.4580" version="1.1" xmlns="http://www.w3.org/2000/svg"> -->
<svg x="0.0000mm" y="0.0000mm" width="100%" viewBox="0.0000 0.0000 42.8620 26.4580" version="1.1" xmlns="http://www.w3.org/2000/svg">
<title>Juicy Fruit single pack</title>
<desc>BarCode licensed to MEM:TEC-IT Datenverarbeitung GmbH Internal License</desc>
<g fill="rgb(0%,0%,0%)">
</g>
<g fill="rgb(100%,100%,100%)">
<rect x="0.0000" y="0.0000" width="42.8620" height="26.4580" />
</g>
<g fill="rgb(0%,0%,0%)">
</g>
<g fill="rgb(0%,0%,0%)">
<rect x="3.7041" y="0.0000" width="0.5292" height="23.0371" />
<rect x="4.7624" y="0.0000" width="0.5292" height="23.0371" />
<rect x="5.8208" y="0.0000" width="0.5292" height="20.1864" />
<rect x="7.9374" y="0.0000" width="1.0583" height="20.1864" />
<rect x="10.5832" y="0.0000" width="1.0583" height="20.1864" />
<rect x="12.1707" y="0.0000" width="0.5292" height="20.1864" />
<rect x="14.2873" y="0.0000" width="1.0583" height="20.1864" />
<rect x="15.8748" y="0.0000" width="0.5292" height="20.1864" />
<rect x="17.9915" y="0.0000" width="0.5292" height="20.1864" />
<rect x="19.0498" y="0.0000" width="1.0583" height="20.1864" />
<rect x="20.6373" y="0.0000" width="0.5292" height="23.0371" />
<rect x="21.6956" y="0.0000" width="0.5292" height="23.0371" />
<rect x="22.7539" y="0.0000" width="1.5875" height="20.1864" />
<rect x="24.8705" y="0.0000" width="0.5292" height="20.1864" />
<rect x="26.4580" y="0.0000" width="0.5292" height="20.1864" />
<rect x="29.1038" y="0.0000" width="0.5292" height="20.1864" />
<rect x="30.1621" y="0.0000" width="1.5875" height="20.1864" />
<rect x="32.8080" y="0.0000" width="0.5292" height="20.1864" />
<rect x="33.8663" y="0.0000" width="1.5875" height="20.1864" />
<rect x="35.9829" y="0.0000" width="0.5292" height="20.1864" />
<rect x="37.5704" y="0.0000" width="0.5292" height="23.0371" />
<rect x="38.6287" y="0.0000" width="0.5292" height="23.0371" />
</g>
<g fill="rgb(0%,0%,0%)">
<text x="12.9644" y="25.2821" transform="rotate(360 12.9644,25.2821)" text-anchor="middle" font-family="Arial" font-size="5.6444" >4009</text>
<text x="29.8976" y="25.2821" transform="rotate(360 29.8976,25.2821)" text-anchor="middle" font-family="Arial" font-size="5.6444" >9309</text>
</g>
</svg>
